# AST/ASF file generated using VICON BodyLanguage
# -----------------------------------------------
:version 1.10
:name VICON
:units
  mass 1.0
  length 0.45
  angle deg
:documentation
   .ast/.asf automatically generated from VICON data using
   VICON BodyBuilder and BodyLanguage model FoxedUp or BRILLIANT.MOD
:root
   order TX TY TZ RX RY RZ
   axis XYZ
   position 0 0 0  
   orientation 0 0 0 
:bonedata
  begin
     id 1 
     name lhipjoint
     direction 0.597014 -0.743513 0.301268 
     length 2.48253 
     axis 0 0 0  XYZ
  end
  begin
     id 2 
     name lfemur
     direction 0.34202 -0.939693 0  
     length 7.51389  
     axis 0 0 20  XYZ
    dof rx ry rz
    limits (-160.0 20.0)
           (-70.0 70.0)
           (-60.0 70.0)
  end
  begin
     id 3 
     name ltibia
     direction 0.34202 -0.939693 0   
     length 7.54147   
     axis 0 0 20   XYZ
    dof rx
    limits (-10.0 170.0)
  end
  begin
     id 4 
     name lfoot
     direction 0.10378 -0.285133 0.952853   
     length 2.2132   
     axis -90 7.62852e-016 20   XYZ
    dof rx rz
    limits (-45.0 90.0)
           (-70.0 20.0)
  end
  begin
     id 5 
     name ltoes
     direction 1.5354e-011 -4.2171e-011 1   
     length 1.10362   
     axis -90 7.62852e-016 20   XYZ
    dof rx
    limits (-90.0 20.0)
  end
  begin
     id 6 
     name rhipjoint
     direction -0.591912 -0.747009 0.302685   
     length 2.47092  
     axis 0 0 0  XYZ 
  end
  begin
     id 7 
     name rfemur
     direction -0.34202 -0.939693 0   
     length 7.69991   
     axis 0 0 -20   XYZ
    dof rx ry rz
    limits (-160.0 20.0)
           (-70.0 70.0)
           (-70.0 60.0)
  end
  begin
     id 8 
     name rtibia
     direction -0.34202 -0.939693 0   
     length 7.40774   
     axis 0 0 -20   XYZ
    dof rx
    limits (-10.0 170.0)
 end
 begin
     id 9 
     name rfoot
     direction -0.0916245 -0.251736 0.963449   
     length 2.08235  
     axis -90 -7.62852e-016 -20   XYZ
    dof rx rz
    limits (-45.0 90.0)
           (-20.0 70.0)
  end
  begin
     id 10 
     name rtoes
     direction -1.53527e-011 -4.21878e-011 1   
     length 1.04369   
     axis -90 -7.62852e-016 -20   XYZ
    dof rx
    limits (-90.0 20.0)
  end
  begin
     id 11 
     name lowerback
     direction -0.0122523 0.991496 -0.12956   
     length 2.10814   
     axis 0 0 0   XYZ
    dof rx ry rz
    limits (-20.0 45.0)
           (-30.0 30.0)
           (-30.0 30.0)
  end
  begin
     id 12 
     name upperback
     direction 0.012378 0.999784 -0.0167122   
     length 2.11728   
     axis 0 0 0   XYZ
    dof rx ry rz
    limits (-20.0 45.0)
           (-30.0 30.0)
           (-30.0 30.0)
  end
  begin
     id 13 
     name thorax
     direction 0.0187236 0.998893 0.0431542   
     length 2.15267   
     axis 0 0 0   XYZ
    dof rx ry rz
    limits (-20.0 45.0)
           (-30.0 30.0)
           (-30.0 30.0)
  end
  begin
     id 14 
     name lowerneck
     direction 0.0165467 0.987304 0.157979   
     length 1.72129   
     axis 0 0 0   XYZ
    dof rx ry rz
    limits (-20.0 45.0)
           (-30.0 30.0)
           (-30.0 30.0)
  end
  begin
     id 15 
     name upperneck
     direction -0.0560236 0.986819 -0.151818   
     length 1.75382   
     axis 0 0 0   XYZ
    dof rx ry rz
    limits (-20.0 45.0)
           (-30.0 30.0)
           (-30.0 30.0)
  end
  begin
     id 16
     name head
     direction -0.0173602 0.99745 -0.0692312  
     length 1.76328  
     axis 0 0 0   XYZ
    dof rx ry rz
    limits (-20.0 45.0)
           (-30.0 30.0)
           (-30.0 30.0)
  end
  begin
     id 17 
     name lclavicle
     direction 0.957734 0.271724 -0.094399  
     length 3.5782  
     axis 0 0 0   XYZ
    dof ry rz
    limits (-20.0 10.0)
           (0.0 20.0)
  end
  begin
     id 18 
     name lhumerus
     direction 1 -4.48963e-011 1.21581e-027   
     length 5.25525   
     axis 180 -30 -90   XYZ
    dof rx ry rz
    limits (-60.0 90.0)
           (-90.0 90.0)
           (-90.0 90.0)
  end
  begin
     id 19
     name lradius
     direction 1 -4.48975e-011 3.71216e-028   
     length 3.35106   
     axis 180 -30 -90   XYZ
    dof rx
    limits (-10.0 170.0)
  end
  begin
     id 20
     name lwrist
     direction 1 -4.48957e-011 4.76535e-027   
     length 1.67553   
     axis -3.27501e-015 90 90   XYZ
    dof ry
    limits (-180.0 0.0)
 end
  begin
     id 21 
     name lhand
     direction 1 -4.49008e-011 9.52727e-027   
     length 0.574153   
     axis -6.08097e-015 90 90   XYZ
    dof rx rz
    limits (-90.0 90.0)
           (-45.0 45.0)
  end
  begin
     id 22 
     name lfingers
     direction 1 -4.48996e-011 1.90562e-026   
     length 0.462897   
     axis -1.21618e-014 90 90   XYZ
    dof rx
    limits (0.0 90.0)
  end
  begin
     id 23
     name lthumb
     direction 0.707107 -6.34908e-011 0.707107   
     length 0.66463   
     axis -90 45 -1.62303e-014   XYZ
    dof rx rz
    limits (-45.0 45.0)
           (-45.0 45.0)
  end
  begin
     id 24 
     name rclavicle
     direction -0.950439 0.29623 -0.0944132   
     length 3.45861  
     axis 0 0 0   XYZ 
    dof ry rz
    limits (-10.0 20.0)
           (-20.0 0.0)
  end
  begin
     id 25 
     name rhumerus
     direction -1 -4.48986e-011 1.25473e-027  
     length 5.33104   
     axis 180 30 90   XYZ
    dof rx ry rz
    limits (-90.0 60.0)
           (-90.0 90.0)
           (-90.0 90.0)
  end
  begin
     id 26 
     name rradius
     direction -1 -4.4894e-011 1.66273e-027   
     length 3.39883   
     axis 180 30 90   XYZ
    dof rx
    limits (-10.0 170.0)
  end
  begin
     id 27 
     name rwrist
     direction -1 -4.48946e-011 4.76572e-027   
     length 1.69941   
     axis -3.27501e-015 -90 -90   XYZ
    dof ry
    limits (-180.0 0.0)
  end
  begin
     id 28
     name rhand
     direction -1 -4.49028e-011 9.52595e-027   
     length 0.913886   
     axis -6.08097e-015 -90 -90   XYZ
    dof rx rz
    limits (-90.0 90.0)
           (-45.0 45.0)
  end
  begin
     id 29
     name rfingers
     direction -1 -4.48945e-011 1.9063e-026   
     length 0.736798   
     axis -1.21618e-014 -90 -90   XYZ
    dof rx
    limits (0.0 90.0)
  end
  begin
     id 30
     name rthumb
     direction -0.707107 -6.34966e-011 0.707107   
     length 1.0579   
     axis -90 -45 1.62303e-014   XYZ
    dof rx rz
    limits (-45.0 45.0)
           (-45.0 45.0)
  end
:hierarchy
  begin
    root lhipjoint rhipjoint lowerback
    lhipjoint lfemur
    lfemur ltibia
    ltibia lfoot
    lfoot ltoes
    rhipjoint rfemur
    rfemur rtibia
    rtibia rfoot
    rfoot rtoes
    lowerback upperback
    upperback thorax
    thorax lowerneck lclavicle rclavicle
    lowerneck upperneck
    upperneck head
    lclavicle lhumerus
    lhumerus lradius
    lradius lwrist
    lwrist lhand lthumb
    lhand lfingers
    rclavicle rhumerus
    rhumerus rradius
    rradius rwrist
    rwrist rhand rthumb
    rhand rfingers
  end

#!OML:ASF F:\VICON\USERDATA\INSTALL\rory3\rory3.ASF
:FULLY-SPECIFIED
:DEGREES
1045
root -4.97126 16.9016 48.403 -486.061 81.1483 -485.398
lowerback 15.6112 -2.82182 5.33205
upperback 6.13422 -2.51112 1.49027
thorax -2.38979 -1.04443 -1.00936
lowerneck -11.8069 12.1371 5.37987
upperneck 23.7232 20.8223 -14.1766
head 11.9054 8.72259 -2.85467
rclavicle 2.9122e-014 -3.81667e-014
rhumerus -39.2648 18.7338 -87.212
rradius 112.923
rwrist -46.4666
rhand -24.785 364.329
rfingers 7.12502
rthumb 1.71917 -745.643
lclavicle 2.9122e-014 -3.81667e-014
lhumerus -27.9995 -47.8714 108.092
lradius 94.9336
lwrist 41.134
lhand -26.0265 35.0747
lfingers 7.12502
lthumb 0.520121 65.0538
rfemur -8.88959 -11.9712 16.6878
rtibia 35.9045
rfoot -17.2746 -5.33983
rtoes 38.8344
lfemur -31.7065 1.7897 -12.0248
ltibia 67.8614
lfoot -10.5895 -3.11773
ltoes -20.2215
1046
root -4.74237 16.9793 48.455 -485.451 81.5271 -484.819
lowerback 15.4937 -1.8567 3.91029
upperback 6.05331 -1.45277 1.80054
thorax -2.31577 -0.543073 -0.076196
lowerneck -11.7544 12.3955 5.19266
upperneck 22.9097 20.9095 -13.8247
head 11.5171 8.8272 -2.69286
rclavicle -1.71949e-014 7.95139e-015
rhumerus -39.5306 17.9995 -87.3041
rradius 112.865
rwrist -46.1662
rhand -24.2329 365.047
rfingers 7.12502
rthumb 2.25242 -744.921
lclavicle -1.71949e-014 7.95139e-015
lhumerus -28.5713 -47.0708 107.271
lradius 96.1752
lwrist 39.6135
lhand -26.2396 35.4044
lfingers 7.12502
lthumb 0.31436 65.3839
rfemur -7.10005 -9.59716 16.9477
rtibia 34.0665
rfoot -17.0885 -7.77166
rtoes 38.9956
lfemur -30.4847 2.86221 -12.2197
ltibia 64.1667
lfoot -12.282 -2.30626
ltoes -20.0212
1047
root -4.52911 17.0304 48.4665 -482.14 81.5881 -481.686
lowerback 15.5069 -1.04276 3.47107
upperback 5.76993 -0.44523 2.04064
thorax -2.58684 -0.0635573 0.249899
lowerneck -11.6678 12.802 5.39857
upperneck 22.0419 21.1825 -13.663
head 11.2 9.02916 -2.62688
rclavicle -2.68359e-015 -5.1684e-015
rhumerus -40.0542 17.4161 -87.6443
rradius 112.963
rwrist -45.0492
rhand -23.6931 364.928
rfingers 7.12502
rthumb 2.77374 -745.034
lclavicle -2.68359e-015 -5.1684e-015
lhumerus -29.316 -46.0937 106.477
lradius 97.3626
lwrist 38.0982
lhand -24.9991 37.0852
lfingers 7.12502
lthumb 1.51245 67.0596
rfemur -5.80257 -7.30492 17.6279
rtibia 32.5478
rfoot -16.8039 -9.74749
rtoes 40.0317
lfemur -29.592 4.40299 -12.118
ltibia 60.5837
lfoot -14.1337 -2.26582
ltoes -18.211
1048
root -4.31054 17.0788 48.4538 -479.753 82.3098 -479.424
lowerback 15.5259 0.0148641 2.69919
upperback 5.45542 0.808798 1.89785
thorax -2.91091 0.535553 0.315339
lowerneck -11.7473 13.1483 6.05576
upperneck 21.347 21.3022 -13.4762
head 11.0147 9.17372 -2.6328
rclavicle 8.24956e-015 -3.97569e-015
rhumerus -40.8047 16.6479 -88.1821
rradius 113.072
rwrist -43.0352
rhand -22.9974 364.852
rfingers 7.12502
rthumb 3.44561 -745.1
lclavicle 8.24956e-015 -3.97569e-015
lhumerus -29.9999 -44.6409 106.621
lradius 97.8091
lwrist 38.3512
lhand -23.8702 36.6004
lfingers 7.12502
lthumb 2.60267 66.5642
rfemur -4.72433 -5.0371 17.4883
rtibia 31.5611
rfoot -16.7561 -12.0005
rtoes 40.3514
lfemur -28.5365 6.03833 -12.9433
ltibia 57.2589
lfoot -15.7436 -2.05199
ltoes -11.7202
1049
root -4.0862 17.1093 48.4231 -490.65 82.4927 -490.525
lowerback 15.3221 0.537186 1.74312
upperback 5.12084 1.32143 1.69112
thorax -3.16443 0.77153 0.547443
lowerneck -11.7274 13.4897 6.64086
upperneck 20.6731 21.4831 -13.3885
head 10.8348 9.33623 -2.65798
rclavicle 5.91384e-015 -2.98177e-015
rhumerus -41.5916 16.1839 -88.6379
rradius 113.16
rwrist -40.6708
rhand -22.8948 364.854
rfingers 7.12502
rthumb 3.54472 -745.096
lclavicle 5.91384e-015 -2.98177e-015
lhumerus -31.3524 -44.9548 105.892
lradius 99.4158
lwrist 40.5782
lhand -24.1698 35.4615
lfingers 7.12502
lthumb 2.31341 65.4287
rfemur -3.53261 -4.1186 16.7991
rtibia 31.1299
rfoot -17.194 -14.1389
rtoes 40.9635
lfemur -27.7986 5.99506 -14.48
ltibia 54.3984
lfoot -17.3152 -1.41536
ltoes -10.8005
